<svg width="209" height="63" viewBox="0 0 209 63" fill="none" xmlns="http://www.w3.org/2000/svg">
<path fill-rule="evenodd" clip-rule="evenodd" d="M84.3593 10.0351C85.5665 11.1341 87.1665 11.6835 89.1593 11.6835C91.1138 11.6835 92.6946 11.1341 93.9018 10.0351C95.109 8.93617 95.7126 7.55768 95.7126 5.89961C95.7126 4.20298 95.109 2.79557 93.9018 1.67734C92.6946 0.559108 91.1138 0 89.1593 0C87.1665 0 85.5665 0.559108 84.3593 1.67734C83.1521 2.79557 82.5485 4.20298 82.5485 5.89961C82.5485 7.55768 83.1521 8.93617 84.3593 10.0351ZM15.406 47.5439C12.4934 47.5439 9.89702 47.0523 7.61677 46.069C5.33652 45.0858 3.53534 43.7362 2.21317 42.0203C0.891011 40.3044 0.153294 38.3668 0 36.2074H10.9222C11.0754 37.2485 11.5545 38.0583 12.3593 38.6367C13.1641 39.2151 14.1605 39.5043 15.3485 39.5043C16.2683 39.5043 16.9964 39.3115 17.5329 38.9259C18.0695 38.5403 18.3377 38.039 18.3377 37.4221C18.3377 36.6123 17.897 36.0146 17.0156 35.629C16.1341 35.2434 14.6779 34.8193 12.6467 34.3566C10.3473 33.8938 8.43114 33.3733 6.8982 32.7949C5.36526 32.2165 4.03354 31.2718 2.90299 29.9608C1.77245 28.6497 1.20719 26.876 1.20719 24.6396C1.20719 22.7116 1.72455 20.9668 2.75928 19.4051C3.79402 17.8434 5.31736 16.5999 7.32934 15.6745C9.34133 14.749 11.7653 14.2863 14.6012 14.2863C18.8168 14.2863 22.1317 15.3274 24.5461 17.4096C26.9605 19.4919 28.3593 22.2296 28.7425 25.6228H18.5677C18.376 24.5817 17.9258 23.7816 17.2168 23.2225C16.5078 22.6634 15.5593 22.3838 14.3713 22.3838C13.4515 22.3838 12.7521 22.5573 12.2731 22.9044C11.794 23.2514 11.5545 23.7334 11.5545 24.3504C11.5545 25.1216 11.9952 25.7096 12.8766 26.1145C13.7581 26.5193 15.176 26.9338 17.1305 27.358C19.4683 27.8593 21.4132 28.4184 22.9653 29.0353C24.5174 29.6523 25.8778 30.6452 27.0467 32.0141C28.2156 33.3829 28.8 35.2434 28.8 37.5956C28.8 39.485 28.2539 41.1816 27.1617 42.6854C26.0695 44.1893 24.5174 45.375 22.5054 46.2425C20.4934 47.1101 18.127 47.5439 15.406 47.5439ZM79.3868 14.6912L71.1665 47.1391H58.5198L54.0359 27.4737L49.3796 47.1391H36.7904L28.6275 14.6912H39.8371L43.4587 36.2074L48.2299 14.6912H60.3018L65.2455 36.2653L68.8096 14.6912H79.3868ZM94.7353 14.6912V47.1391H83.4683V14.6912H94.7353ZM116.752 15.6166C115.143 16.5035 113.897 17.6988 113.016 19.2027V14.6912H101.749V54.2244H83.6407V62.6111H101.749V62.64H113.016V42.6276C113.935 44.1314 115.19 45.3268 116.781 46.2136C118.371 47.1005 120.259 47.5439 122.443 47.5439C125.011 47.5439 127.339 46.8691 129.428 45.5196C131.516 44.17 133.164 42.2324 134.371 39.7067C135.578 37.181 136.182 34.2409 136.182 30.8862C136.182 27.5315 135.578 24.601 134.371 22.0946C133.164 19.5882 131.516 17.6603 129.428 16.3107C127.339 14.9611 125.011 14.2863 122.443 14.2863C120.259 14.2863 118.362 14.7297 116.752 15.6166ZM124.743 30.8862C124.743 28.7654 124.177 27.117 123.047 25.9409C121.916 24.7649 120.527 24.1768 118.879 24.1768C117.231 24.1768 115.842 24.7745 114.711 25.9699C113.581 27.1652 113.016 28.804 113.016 30.8862C113.016 33.007 113.581 34.665 114.711 35.8604C115.842 37.0557 117.231 37.6534 118.879 37.6534C120.527 37.6534 121.916 37.0461 123.047 35.8315C124.177 34.6168 124.743 32.9684 124.743 30.8862ZM147.19 45.5196C149.739 46.8691 152.623 47.5439 155.842 47.5439C159.061 47.5439 161.954 46.8691 164.522 45.5196C167.09 44.17 169.111 42.2324 170.587 39.7067C172.062 37.181 172.8 34.2409 172.8 30.8862C172.8 27.5315 172.062 24.601 170.587 22.0946C169.111 19.5882 167.099 17.6603 164.551 16.3107C162.002 14.9611 159.119 14.2863 155.899 14.2863C152.68 14.2863 149.796 14.9611 147.248 16.3107C144.699 17.6603 142.687 19.5882 141.212 22.0946C139.737 24.601 138.999 27.5315 138.999 30.8862C138.999 34.2795 139.727 37.2292 141.183 39.7356C142.64 42.242 144.642 44.17 147.19 45.5196ZM155.842 37.7112C157.413 37.7112 158.726 37.1232 159.78 35.9471C160.834 34.7711 161.36 33.0841 161.36 30.8862C161.36 28.6883 160.834 27.011 159.78 25.8542C158.726 24.6974 157.432 24.119 155.899 24.119C154.366 24.119 153.083 24.6974 152.048 25.8542C151.013 27.011 150.496 28.6883 150.496 30.8862C150.496 33.1227 150.994 34.8193 151.99 35.9761C152.987 37.1329 154.271 37.7112 155.842 37.7112Z" fill="#2A78F5"/>
<path fill-rule="evenodd" clip-rule="evenodd" d="M183.152 45.6332C185.7 46.9828 188.584 47.6576 191.803 47.6576C195.022 47.6576 197.916 46.9828 200.483 45.6332C203.051 44.2836 205.073 42.346 206.548 39.8204C208.023 37.2947 208.761 34.3546 208.761 30.9999C208.761 27.6452 208.023 24.7147 206.548 22.2083C205.073 19.7019 203.061 17.774 200.512 16.4244C197.964 15.0748 195.08 14.4 191.861 14.4C188.641 14.4 185.758 15.0748 183.209 16.4244C180.661 17.774 178.649 19.7019 177.173 22.2083C175.698 24.7147 174.96 27.6452 174.96 30.9999C174.96 34.3931 175.688 37.3429 177.144 39.8493C178.601 42.3557 180.603 44.2836 183.152 45.6332ZM195.741 36.0608C194.687 37.2369 193.374 37.8249 191.803 37.8249C190.232 37.8249 188.948 37.2465 187.952 36.0897C186.955 34.933 186.457 33.2363 186.457 30.9999C186.457 28.802 186.974 27.1247 188.009 25.9679C189.044 24.8111 190.328 24.2327 191.861 24.2327C193.394 24.2327 194.687 24.8111 195.741 25.9679C196.795 27.1247 197.322 28.802 197.322 30.9999C197.322 33.1978 196.795 34.8848 195.741 36.0608Z" fill="#2A78F5"/>
</svg>
